<?xml version="1.0" encoding="utf-8"?>
<!-- Generator: Adobe Illustrator 15.0.0, SVG Export Plug-In . SVG Version: 6.00 Build 0)  -->
<!DOCTYPE svg PUBLIC "-//W3C//DTD SVG 1.1//EN" "http://www.w3.org/Graphics/SVG/1.1/DTD/svg11.dtd">
<svg version="1.1" id="Layer_1" xmlns="http://www.w3.org/2000/svg" xmlns:xlink="http://www.w3.org/1999/xlink" x="0px" y="0px"
	 width="792px" height="1224px" viewBox="0 0 792 1224" enable-background="new 0 0 792 1224" xml:space="preserve">
<polygon fill="#CA9E67" points="461.442,678.008 456.661,673.09 452.313,666.414 450.142,660.791 445.796,653.766 441.015,645.334 
	437.54,636.902 435.368,628.117 434.497,616.174 434.497,596.85 434.933,586.31 434.933,577.176 437.104,568.393 437.104,562.068 
	437.54,555.745 437.54,551.529 436.672,549.42 431.025,550.826 421.028,551.176 406.251,551.879 395.389,551.879 388.002,553.635 
	375.834,553.635 367.141,553.635 362.36,551.529 357.583,548.367 347.152,545.907 341.936,542.393 337.593,539.934 325.424,531.503 
	326.594,532.718 326.594,548.367 326.594,565.231 326.594,585.256 326.594,609.147 326.594,634.793 326.594,655.17 326.594,661.143 
	330.637,663.953 340.631,665.359 349.758,665.359 360.621,665.359 368.444,665.359 375.398,665.359 383.218,667.115 
	393.215,667.115 404.946,669.576 414.507,673.09 423.917,675.898 428.412,677.656 428.412,687.844 428.412,692.061 436.236,692.061 
	442.315,692.061 442.315,686.439 442.315,683.277 450.142,682.926 455.792,686.088 457.53,689.6 462.31,689.6 465.786,688.547 
	465.786,684.332 "/>
</svg>
