<?xml version="1.0" encoding="utf-8"?>
<!-- Generator: Adobe Illustrator 15.0.0, SVG Export Plug-In . SVG Version: 6.00 Build 0)  -->
<!DOCTYPE svg PUBLIC "-//W3C//DTD SVG 1.1//EN" "http://www.w3.org/Graphics/SVG/1.1/DTD/svg11.dtd">
<svg version="1.1" id="Layer_1" xmlns="http://www.w3.org/2000/svg" xmlns:xlink="http://www.w3.org/1999/xlink" x="0px" y="0px"
	 width="792px" height="1224px" viewBox="0 0 792 1224" enable-background="new 0 0 792 1224" xml:space="preserve">
<path fill-rule="evenodd" clip-rule="evenodd" fill="#B3A1A1" d="M582,614c7.361,1.972,14.31,4.357,17,11
	C595.042,623.61,583.34,621.338,582,614z"/>
<path fill-rule="evenodd" clip-rule="evenodd" fill="#B3A1A1" d="M586,495c11.693,0.64,19.878,4.789,29,8
	c7.936,8.901,3.38,19.884,6,32c1.011,4.674,6.365,8.298,8,13c4.151,11.937-0.643,27.385,8,36c2.741,13.504-5.775,18.478-4,28
	c-6.034,3.519-15.166,12.29-23,5c-1.586-2.826,3.247-6.339,4-10c-10.716,1.718-1.06,20.326-13,19c3.104,4.562,9.238,6.095,13,10
	c2.037-2.963,3.57-6.43,3-12c13.46-2.452,14.8,12.523,19,16c-2.006,6.327-5.274,11.393-11,14c0.924,19.275-14.062,11.634-25,14
	c-4.889-2.111-6.486-7.514-9-12c-1.271-4.605,5.071-1.595,6-4c-10.253-3.575-21.119,0.872-27,5c2.271,3.729,12.562-0.562,12,6
	c0.907-3.86,7.568-3.509,11-2c1.979,7.646-4.888,6.445-4,13c2.233,0.8,7.847-0.298,12,1c4.787,8.216,0.35,18.891-3,25
	c-6.781,0.033-13.518-5.354-20-6c-5.816-0.579-11.638,1.554-17,1c-12.788-1.319-20.063-11.638-35-10
	c-16.698,1.83-20.947,19.249-39,20c3.392,12.107,6.564,22.24,9,37c-11.319,4.844-26.46,1.789-41,3c-11.016,0.917-21.479,3.819-31,2
	c-3.461-0.661-6.321-4.251-11-6c-3.47-1.297-8.132-0.736-11-2c-12.806-5.642-20.829-14.33-28-24c-12.221-16.479,1.921-21.215,5-43
	c1.796-12.712-3.329-22.911,8-27c-38.667,0-77.333,0-116,0c0-13.333,0-26.667,0-40c-30.705-2.358-70.948-0.299-100-1
	c-2.688-4.769-0.444-12.797,6-16c-3.152-5.182-2.483-14.183-7-18c-4.667,0-9.333,0-14,0c-1.541-6.455-2.445-11.042,0-16
	c38.333,0,76.667,0,115,0c0-23.333,0-46.667,0-70c40,0,80,0,120,0c0,11.667,0,23.333,0,35c18.333,0,36.667,0,55,0
	c0,10.333,0,20.667,0,31c15.333,0,30.667,0,46,0c1.522-23.811-3.325-53.992,3-73c7.927-1.426,10.34,6.513,18,8
	C537.25,489.709,578.325,468.076,586,495z M599,625c-2.69-6.643-9.639-9.028-17-11C583.34,621.338,595.042,623.61,599,625z"/>
</svg>
