<?xml version="1.0" encoding="utf-8"?>
<!-- Generator: Adobe Illustrator 15.0.0, SVG Export Plug-In . SVG Version: 6.00 Build 0)  -->
<!DOCTYPE svg PUBLIC "-//W3C//DTD SVG 1.1//EN" "http://www.w3.org/Graphics/SVG/1.1/DTD/svg11.dtd">
<svg version="1.1" id="Layer_1" xmlns="http://www.w3.org/2000/svg" xmlns:xlink="http://www.w3.org/1999/xlink" x="0px" y="0px"
	 width="792px" height="1224px" viewBox="0 0 792 1224" enable-background="new 0 0 792 1224" xml:space="preserve">
<g>
	<path fill-rule="evenodd" clip-rule="evenodd" fill="#B3B0A1" d="M536,196c-0.806,16.074-0.453,28.547,8,37
		c-2.146,22.854-0.469,49.531-1,74c-16.125,1.875-35.341,0.659-53,1c-2.255-8.411-0.391-20.942-1-31
		c-16.335-2.331-36.998-0.335-55-1c0-11.333,0-22.667,0-34c-35.334-2.333-75-0.334-112-1c0,23.333,0,46.667,0,70
		c-37.672,2.328-79.663,0.338-119,1c-4.604-5.906-0.132-12.977,2-18c5.398-0.602,13.904,1.904,15-3c-0.631-4.703-7.938-2.728-10-6
		c2.847-8.153,11.914-10.086,16-17c1.656-21.299-10.538-35.357-2-51c2.333,0,4.667,0,7,0c3.304,2.029,2.419,8.247,4,12
		c9.871,3.098,13.792-6.323,14-16c3,0,6,0,9,0c0.27,5.063,3.219,7.448,2,14c7.333-6.068-4.426-16.212-3-27
		c0.251-1.896,2.164-3.345,3-6c1.405-4.461-1.759-9.373,4-11c-5.011-0.322-7.408-3.258-8-8c15.728-4.938,32.673-8.66,41-21
		c4.838-0.838,7.072,0.928,10,2c5.372-0.295,5.597-5.736,10-7c5.018-0.351,6.284,3.049,8,6c8.792-3.525,17.833-1.919,22-10
		c3.513-6.811,0.026-13.279,5-18c7.389-7.013,18.21-2.166,20-14c12.798,1.993,19.355-5.987,31-2c6.864-3.469,5.729-14.938,19-12
		c7.061-13.543,13.023-7.895,22,0c5.769,5.073,10.125,5.27,12,12c18.55,6.784,36.432,14.235,49,27
		C500.587,172.08,516.605,185.728,536,196z M430,96c4.473-0.14,5.001,3.666,9,4C440.475,95.12,429.307,93.585,430,96z M441,108
		c-2.56-3.461-9.489-7.817-13-7C430.467,105.2,434.466,107.868,441,108z"/>
	<path fill-rule="evenodd" clip-rule="evenodd" fill="#FFFFFF" d="M439,100c-3.999-0.334-4.527-4.14-9-4
		C429.307,93.585,440.475,95.12,439,100z"/>
	<path fill-rule="evenodd" clip-rule="evenodd" fill="#FFFFFF" d="M428,101c3.511-0.817,10.44,3.539,13,7
		C434.466,107.868,430.467,105.2,428,101z"/>
</g>
</svg>
