<?xml version="1.0" encoding="utf-8"?>
<!-- Generator: Adobe Illustrator 15.0.0, SVG Export Plug-In . SVG Version: 6.00 Build 0)  -->
<!DOCTYPE svg PUBLIC "-//W3C//DTD SVG 1.1//EN" "http://www.w3.org/Graphics/SVG/1.1/DTD/svg11.dtd">
<svg version="1.1" id="Layer_1" xmlns="http://www.w3.org/2000/svg" xmlns:xlink="http://www.w3.org/1999/xlink" x="0px" y="0px"
	 width="792px" height="1224px" viewBox="0 0 792 1224" enable-background="new 0 0 792 1224" xml:space="preserve">
<polygon fill="#B3B0A1" points="448.108,530.312 446.368,528.907 443.325,527.502 436.806,526.799 436.806,525.043 431.159,524.691 
	422.468,525.746 412.039,525.043 405.521,522.936 399.435,520.826 387.701,515.206 377.271,516.259 371.191,519.07 362.932,524.339 
	353.373,531.016 348.157,535.231 339.901,535.583 339.466,540.852 342.072,544.015 342.94,547.528 342.511,552.797 344.682,558.068 
	345.985,564.041 348.157,568.256 348.157,573.526 349.025,575.635 349.025,577.734 349.025,579.85 348.59,586.174 348.59,592.499 
	346.418,601.282 346.418,610.416 345.982,620.957 345.982,640.281 346.854,652.225 349.025,661.008 352.501,669.441 
	357.282,677.873 361.628,684.898 363.799,690.521 368.146,697.195 372.928,702.115 377.271,708.438 394.653,699.654 
	404.213,694.033 408.995,690.871 412.471,690.871 408.125,683.844 406.823,676.82 403.346,666.629 400.734,659.252 400.734,653.98 
	399,650.117 397.263,645.549 394.87,642.035 394.87,639.578 408.125,639.578 420.294,639.578 422.034,638.875 417.688,636.062 
	413.342,636.062 409.864,635.361 408.997,632.902 408.997,629.74 409.429,626.227 408.561,622.01 405.086,618.497 402.912,616.74 
	400.306,616.389 397.265,614.983 396.828,612.875 396.828,610.416 398.133,608.307 398.133,605.146 399,602.335 402.479,599.525 
	405.086,596.363 407.692,592.849 407.26,588.633 411.172,584.417 412.039,581.607 415.08,578.094 415.08,575.283 411.606,575.283 
	408.997,574.229 408.561,570.364 408.125,566.148 408.561,559.824 409.429,553.5 411.172,551.042 414.213,547.88 416.821,547.177 
	422.901,546.473 427.249,544.365 427.683,541.906 425.075,539.799 427.683,538.394 427.249,534.178 427.683,532.07 430.288,531.717 
	433.332,532.07 435.07,533.475 435.941,536.285 437.243,539.096 440.286,540.15 443.763,540.15 446.804,538.745 449.843,536.285 
	451.585,530.312 "/>
</svg>
