<?xml version="1.0" encoding="utf-8"?>
<!-- Generator: Adobe Illustrator 15.0.0, SVG Export Plug-In . SVG Version: 6.00 Build 0)  -->
<!DOCTYPE svg PUBLIC "-//W3C//DTD SVG 1.1//EN" "http://www.w3.org/Graphics/SVG/1.1/DTD/svg11.dtd">
<svg version="1.1" id="Layer_1" xmlns="http://www.w3.org/2000/svg" xmlns:xlink="http://www.w3.org/1999/xlink" x="0px" y="0px"
	 width="792px" height="1224px" viewBox="0 0 792 1224" enable-background="new 0 0 792 1224" xml:space="preserve">
<g>
	<path fill-rule="evenodd" clip-rule="evenodd" d="M129,170c0.779-7.401,5.833-5.769,0-11c14.028-5.587,21.919,8.391,35,10
		c3.229,20.896-9.694,25.639-14,39c2.964,2.703,8.479,2.854,9,8c0.701,4.034-2.05,4.616-3,7c5.88,9.454,18.566,12.1,25,21
		c-6.399,0.826-1.215,7.147-5,10c-2.478,0.872-7.753,1.953-10,0c-7.607,5.682-1.008,11.615-3,20c4.063-0.938,2.882-7.118,8-7
		c6.452-1.452,6.302,3.698,11,4c3.272-4.317-0.776-9.856-3-12c2.397-3.603,8.004-3.996,11-7c-2.875-6.384-4.152-6.733-2-15
		c0.08-3.747-7.08-0.253-7-4c-0.7-8.272,9.715-15.401,7-26c4.505-0.162,0.932-8.402,7-7c1.47-3.804-4.47-0.196-3-4
		c2.997-2.669,4.587-6.746,8-9c7.18,0.153,14.357,0.31,14,8c9.96,3.215,12.702-3.889,18-8c-3.89-1.561-5.25-7.672-2-11
		c-28.816,5.837-52.322-6.542-56-32c3.494-9.354-1.708-16.135-3-26c6.595-6.738,11.434-15.232,19-21c-1.976-4.024-4.368-7.632-8-10
		c0.255-5.745-0.749-12.749,1-17c6.934-3.4,13.304-7.362,15-16c15.388-3.055,16.213,8.453,24,13c1.917,8.25-4.213,8.453-4,15
		c10.447,4.434,13.681-6.976,20-10c32.355,2.312,68.984,0.35,103,1c0,13.667,0,27.333,0,41c39.333,0,78.666,0,118,0
		c0.657,7.324-6.232,7.101-9,11c-3.151,7.185,0.172,12.128-1,20c-1.661,11.164-11.453,21.197-11,30c0.421,8.175,12.007,14.21,14,23
		c3.906,17.229,0,41.737,0,63c0,21.552,0,42.429,0,63c31.721,7.945,78.738,0.595,102,17c0,4,0,8,0,12c1.063,2.27,6.286,0.381,9,1
		c2.552-1.115-0.401-7.735,2-9c14.172-3.402,13.406,9.665,25,6c7.333,12.667,17.083,22.917,18,42c3.71,7.624,10.838,11.828,16,18
		c0.338,4.671-2.771,5.896-5,8c11.507,9.493,27.961,14.039,41,22c-4.355,3.979-4.573,12.094-4,21c-30.066,11.6-63.95,19.383-92,33
		c0,19.333,0,38.667,0,58c-10.478,2.404-20.715,5.519-33,3c-8.356-1.713-17.174-9.463-26-13c-27.217-10.907-59.717-14.341-91-23
		c0,26,0,52,0,78c-22.016,2.317-48.322,0.345-72,1c-2.333,113-0.333,230.334-1,345c-29.253,1.449-57.808-7.221-82-15
		c-9.447-3.038-19.38-7.124-28-12c-8.73-4.938-18.431-9.248-26-14c-11.953-7.505-19.792-23.363-28-38
		c-21.487-38.316-48.7-76.404-74-107c21.809,2.476,32.69-5.977,46-12c-0.932-10.265,0.139-18.527,6-22
		c-2.07-5.264-5.303-9.364-10-12c2.86-13.581-2.599-32.771,5-42c-6.862-7.241-7.452-14.576-11-25c-9.017-6.316-20.244-10.423-23-23
		c-6.19-5.477-11.549-11.784-17-18c0-10,0-20,0-30c3.458-1.875,4.246-6.42,11-5c1.736-6.925-2.274-16.254-3-24
		c-1.804-4.529-9.473-3.193-8-11c-6.282-6.718-15.815-10.185-21-18c-1.019-13.221,10.523-29.992,0-40c0-4.333,0-8.667,0-13
		c-0.345-2.655-2.625-3.375-5-4c0.622-2.711,4.178-2.489,4-6c-0.226-1.44-2.985-0.349-3-2c0-17.667,0-35.333,0-53
		c0.455-3.211,3.892-3.441,6-5c-6.33-21.188-8.137-38.792-9-64c-1.515-2.853-6.851-7.104-3-12c-0.416-2.251-5.483,0.15-5-3
		c7.934-13.4,11.366-31.301,13-51c-1.335-2.998-5.082-3.585-7-6c6.48-12.187,15.592-21.741,36-20c6.025,4.895,6.178,13.522,10,21
		c2.954,5.779,10.487,9.976,7,24c3.979,2.184,12.096,1.098,14-2c-2.509-4.491-9.819-4.181-10-11c-0.749-3.749,1.127-4.873,4-5
		c-5.545-8.455-7.586-20.414-17-25c1.627-7.706,7.412-11.255,12-16c1.567-13.732-3.362-17.211-3-28c-5.458-0.458-10.082-0.082-11,4
		c-7.406,1.073-10.874-1.792-14-5c0.52-10.813,7.72-14.947,19-15c2.715,0.715-0.715-4.715,2-4c11.324-1.991,13.769,4.898,21,7
		C136.408,177.258,130.766,175.568,129,170z M175,242c-4.559-2.79-10.809-9.172-15-9C166.057,234.291,169.149,243.831,175,242z
		 M168,243c-3.046-1.621-4.312-5.021-8-6C160.224,240.814,166.224,244.059,168,243z"/>
	<path fill-rule="evenodd" clip-rule="evenodd" d="M106,106c-3.468,2.866-4.923,7.743-4,15c-4.061,0.939-5.5,4.5-10,5
		c2.148,4.185,6.12,6.547,10,9c1.386,7.031-9.102,10.211-11,5c-4.317,0.684-4.107,5.893-10,5c-4.917-1.083-3.657-8.343-12-6
		c-0.168,2.168,3.547,0.453,5,1c-0.609,2.391,1.255,7.255-1,8c5.267,6.4,14.919,8.414,13,22c-8.125-1.125-8.179,5.821-11,10
		c4.602-0.452,7.962-1.825,11,1c0,2,0,4,0,6c-5.736,2.264-10.577,5.423-12,12c12.848,10.818,35.798,11.535,40,31
		c-7.877,0.21-13.09-2.243-15-8c-13.937-6.729-26.909-14.425-40-22c-3.326-6.816,1.436-11.977,4-16c-3.807-6.309-0.289-11.495,0-19
		c-1.346-4.321-6.255-5.078-8-9c0.077-12.589,6.151-19.182,8-30c6.958-3.375,12.338-8.329,16-15
		C91.188,112.647,95.877,100.26,106,106z"/>
	<path fill-rule="evenodd" clip-rule="evenodd" d="M120,147c-4.866,1.468-8.035,4.632-15,4c-1.712-3.621-2.495-8.172-2-14
		C112.842,133.393,121.992,130.414,120,147z"/>
	<path fill-rule="evenodd" clip-rule="evenodd" fill="#FFFFFF" d="M96,162c5,0,10,0,15,0c0,1.667,0,3.333,0,5
		c-3.36,0.027-5.29-1.377-7-3c-1.354,2.646-1.433,6.567-7,5C97.58,165.753,96.319,164.348,96,162z"/>
	<path fill-rule="evenodd" clip-rule="evenodd" d="M613,421c-0.39,8.056,8.359,6.974,7,16c-8.902,4.671-11.797-4.699-17-7
		C601.925,422.592,605.735,420.069,613,421z M606,429c5.526-0.527,3.68,6.321,10,5c-1.785-4.215-5.069-6.931-8-10
		C607.574,425.907,605.143,425.81,606,429z"/>
	<path fill-rule="evenodd" clip-rule="evenodd" fill="#FFFFFF" d="M608,424c2.931,3.069,6.215,5.785,8,10
		c-6.32,1.321-4.474-5.527-10-5C605.143,425.81,607.574,425.907,608,424z"/>
	<path fill-rule="evenodd" clip-rule="evenodd" d="M94,87c0.306,3.027,3.094,3.573,2,8c-6.196,0.196-12.746,0.745-13-5
		C85.44,87.774,88.669,86.336,94,87z"/>
	<path fill-rule="evenodd" clip-rule="evenodd" d="M89,153c3,0,6,0,9,0c1.151,1.182,1.132,3.535,1,6c5,0,10,0,15,0
		c0,3.333,0,6.667,0,10c-6.604,1.055-13.173,5.153-20,2C96.129,161.204,87.117,162.55,89,153z"/>
</g>
</svg>
