<?xml version="1.0" encoding="utf-8"?>
<!-- Generator: Adobe Illustrator 15.0.0, SVG Export Plug-In . SVG Version: 6.00 Build 0)  -->
<!DOCTYPE svg PUBLIC "-//W3C//DTD SVG 1.1//EN" "http://www.w3.org/Graphics/SVG/1.1/DTD/svg11.dtd">
<svg version="1.1" id="Layer_1" xmlns="http://www.w3.org/2000/svg" xmlns:xlink="http://www.w3.org/1999/xlink" x="0px" y="0px"
	 width="792px" height="1224px" viewBox="0 0 792 1224" enable-background="new 0 0 792 1224" xml:space="preserve">
<path fill-rule="evenodd" clip-rule="evenodd" fill="#B19E85" d="M408,542c-2.551,14.108,9.235,32.733,1,46
	c-17.389-1.055-17.999,14.668-17,32c4.103,3.723,16.358,4.093,12,13c-2.928,4.739-11.295,4.038-13,10c3.93,5.079,11.888-0.838,16-2
	c4.554,1.113,4.181,7.152,7,10c9.104-2.762,20.242-6.854,23,5c6.005-0.338,11.694-0.361,12,5c2.522-1.811,5.238-3.429,10-3
	c0.537,14.484-10.276,19.7-9,32c-12.154,0.179-25.999-1.332-33,4c-27.869,0.869-41.641-12.359-58-23c1.162-3.172,6.203-2.464,7-6
	c-4.278-6.389-10.565-10.769-15-17c-1.094-18.905-9.882-30.117-18-42c3.532-16.135,23.875-15.459,34-25
	c-6.285-16.049-10.309-34.358-16-51c8.651-1.846,23.269-1.372,32,0c2.1,4.9,3.112,10.888,7,14
	C390.39,540.792,402.535,540.314,408,542z"/>
</svg>
