<?xml version="1.0" encoding="utf-8"?>
<!-- Generator: Adobe Illustrator 15.0.0, SVG Export Plug-In . SVG Version: 6.00 Build 0)  -->
<!DOCTYPE svg PUBLIC "-//W3C//DTD SVG 1.1//EN" "http://www.w3.org/Graphics/SVG/1.1/DTD/svg11.dtd">
<svg version="1.1" id="Layer_1" xmlns="http://www.w3.org/2000/svg" xmlns:xlink="http://www.w3.org/1999/xlink" x="0px" y="0px"
	 width="792px" height="1224px" viewBox="0 0 792 1224" enable-background="new 0 0 792 1224" xml:space="preserve">
<path fill-rule="evenodd" clip-rule="evenodd" fill="#FFFFFF" d="M373,749c3.719,1.033,1.97,9.492,0,11
	C365.17,759.344,371.488,751.86,373,749z"/>
<path fill-rule="evenodd" clip-rule="evenodd" fill="#B3A1A1" d="M570,361c-0.674,10.674,9.741,10.259,13,17
	c-1.078,9.078,0.943,15.057,3,21c-0.447,5.553-8.713,3.288-10,8c-0.469,7.135,5.219,8.115,7,13c-2.706,14.768,6.426,24.226,3,38
	c-1.529,6.146-9.233,9.545-10,15c-1.571,11.179,7.396,21.769,13,30c1.188,16.188-7.17,22.83-14,31c-9.088-0.088-18.688-0.688-18,9
	c-0.506,3.839,6.006,0.661,6,4c-9.094,22.24-27.819,34.848-39,55c-5.01,5.416-13.286,5.64-18,11c-6.353,7.224-6.609,20.233-15,26
	c3.854,10.218-5.046,15.169-7,21c-1.787,5.332-0.231,11.598-2,17c-3.014,9.205-12.206,21.461-18,28c-1.722,1.942-3.673,3.076-6,4
	c-1.858,20.282-11.243,41.32-27,51c-9.834-1.501-13.954,2.713-23,2c0.767,6.158-5.851,7.046-7,13c-1.158,5.999,3.351,11.878,0,18
	c-2.891,5.28-10.406,5.619-16,9c-5.557,3.358-8.036,11.155-15,10c-3.315-9.352-3.71-21.623-12-26c6.436-7.563,22.878-5.122,23-19
	c-2.507-1.789-4.328,5.634-6,8c-3.966-2.447-5.755-5.015-6-9c-6.571-3.096-14.326-5.007-19-10c-2.428,10.211-5.111,1.04-11-1
	c-2.641,4.223-4.53,13.866-10,12c-2.278-11.611,3.938-14.729,4-24c-2.379,1.288-0.84,6.494-4,7c-9.945-4.027-16.751,7.666-27,2
	c-3.158,2.176-3.869,6.797-9,7c-4.824,1.49-2.076-4.59-6-4c-5.103,1.508-3.894,7.79-3,13c13.879,8.229,36.736,0.41,49,3
	c5.365,0.923-1.978,3.153-1,6c1.981,4.019,10.769,1.23,10,8c5.762-0.377,7.116-6.479,11-1c0.812,7.645-8.116,10.263-9,19
	c-0.858,8.487,4.033,16.465,2,25c-1.253,5.261-7.692,8.76-4,18c-43.024,12.643-96.324,15.01-140,27
	c-2.333-115.336-0.334-234.997-1-352c24.333,0,48.667,0,73,0c0-26.333,0-52.667,0-79c42.972,9.361,88.826,15.841,121,36
	c9.801-0.199,20.664,0.664,29-1c0-19.333,0-38.667,0-58c27.802-14.531,62.797-21.87,93-34c0-6,0-12,0-18
	C532.758,363.586,549.913,356.815,570,361z M373,760c1.97-1.508,3.719-9.967,0-11C371.488,751.86,365.17,759.344,373,760z"/>
</svg>
