<?xml version="1.0" encoding="utf-8"?>
<!-- Generator: Adobe Illustrator 15.0.0, SVG Export Plug-In . SVG Version: 6.00 Build 0)  -->
<!DOCTYPE svg PUBLIC "-//W3C//DTD SVG 1.1//EN" "http://www.w3.org/Graphics/SVG/1.1/DTD/svg11.dtd">
<svg version="1.1" id="Layer_1" xmlns="http://www.w3.org/2000/svg" xmlns:xlink="http://www.w3.org/1999/xlink" x="0px" y="0px"
	 width="800px" height="600px" viewBox="0 0 800 600" enable-background="new 0 0 800 600" xml:space="preserve">
<rect x="264.988" y="262" fill="#FFEE44" width="85.535" height="83.37"/>
<rect x="95" y="262" fill="#FFD600" width="85.536" height="83.37"/>
<rect x="350.523" y="262" fill="#FFF377" width="85.536" height="83.37"/>
<rect x="436.142" y="262" fill="#FFF69F" width="85.536" height="83.37"/>
<rect x="606.047" y="262" fill="#FFF9D9" width="84.453" height="83.37"/>
<rect x="180.536" y="262" fill="#FFE55C" width="84.453" height="83.37"/>
<rect x="521.595" y="262" fill="#FFF9BF" width="84.452" height="83.37"/>
<rect x="109.698" y="295.664" fill="none" width="61.817" height="32.969"/>
<text transform="matrix(1 0 0 1 109.6982 315.8945)" font-family="'Futura-Medium'" font-size="24.5206">40%</text>
<rect x="186.763" y="295.664" fill="none" width="87.917" height="32.969"/>
<text transform="matrix(1 0 0 1 186.7632 315.8945)" font-family="'Futura-Medium'" font-size="24.5206">38.2%</text>
<rect x="280.451" y="295.664" fill="none" width="68.685" height="32.969"/>
<text transform="matrix(1 0 0 1 280.4502 315.8945)" font-family="'Futura-Medium'" font-size="24.5206">7.1%</text>
<rect x="361.087" y="295.664" fill="none" width="68.686" height="32.969"/>
<text transform="matrix(1 0 0 1 361.0859 315.8945)" font-family="'Futura-Medium'" font-size="24.5206">4.6%</text>
<rect x="442.615" y="295.664" fill="none" width="68.688" height="32.969"/>
<text transform="matrix(1 0 0 1 448.6162 315.8945)" font-family="'Futura-Medium'" font-size="24.5206">4.3%</text>
<rect x="534.449" y="295.664" fill="none" width="68.683" height="32.969"/>
<text transform="matrix(1 0 0 1 534.4492 315.8945)" font-family="'Futura-Medium'" font-size="24.5206">2.4%</text>
<rect x="615.016" y="295.664" fill="none" width="68.685" height="32.969"/>
<text transform="matrix(1 0 0 1 615.0156 315.8945)" font-family="'Futura-Medium'" font-size="24.5206">0.9%</text>
</svg>
