<?xml version="1.0" encoding="utf-8"?>
<!-- Generator: Adobe Illustrator 15.0.0, SVG Export Plug-In . SVG Version: 6.00 Build 0)  -->
<!DOCTYPE svg PUBLIC "-//W3C//DTD SVG 1.1//EN" "http://www.w3.org/Graphics/SVG/1.1/DTD/svg11.dtd">
<svg version="1.1" id="Layer_1" xmlns="http://www.w3.org/2000/svg" xmlns:xlink="http://www.w3.org/1999/xlink" x="0px" y="0px"
	 width="800px" height="600px" viewBox="0 0 800 600" enable-background="new 0 0 800 600" xml:space="preserve">
<rect x="290" y="264" fill="#6F9D21" width="73" height="71"/>
<rect x="144" y="264" fill="#006430" width="73" height="71"/>
<rect x="363" y="264" fill="#9AC331" width="73" height="71"/>
<rect x="436" y="264" fill="#C5D97F" width="73" height="71"/>
<rect x="582" y="264" fill="#E2EAB1" width="72" height="71"/>
<rect x="217" y="264" fill="#008B3D" width="73" height="71"/>
<rect x="509" y="264" fill="#D8E4A2" width="73" height="71"/>
<rect x="151.588" y="292.832" fill="none" width="68.235" height="28.235"/>
<text transform="matrix(1 0 0 1 151.5879 310.1562)" fill="#FCEE21" font-family="'Futura-Medium'" font-size="21">45.7%</text>
<rect x="222.588" y="292.832" fill="none" width="75.294" height="28.235"/>
<text transform="matrix(1 0 0 1 222.5879 310.1562)" fill="#FCEE21" font-family="'Futura-Medium'" font-size="21">23.1%</text>
<rect x="302.824" y="292.832" fill="none" width="58.823" height="28.235"/>
<text transform="matrix(1 0 0 1 302.8237 310.1562)" fill="#FCEE21" font-family="'Futura-Medium'" font-size="21">5.3%</text>
<rect x="371.882" y="292.832" fill="none" width="58.823" height="28.235"/>
<text transform="matrix(1 0 0 1 371.8823 310.1562)" fill="#FCEE21" font-family="'Futura-Medium'" font-size="21">2.8%</text>
<rect x="445.706" y="292.832" fill="none" width="77.647" height="28.235"/>
<text transform="matrix(1 0 0 1 445.7061 310.1562)" fill="#8E9407" font-family="'Futura-Medium'" font-size="21">2.7%</text>
<rect x="520.354" y="292.832" fill="none" width="58.822" height="28.235"/>
<text transform="matrix(1 0 0 1 520.3535 310.1562)" fill="#8E9407" font-family="'Futura-Medium'" font-size="21">1.1%</text>
<rect x="589.354" y="292.832" fill="none" width="58.822" height="28.235"/>
<text transform="matrix(1 0 0 1 589.3535 310.1562)" fill="#8E9407" font-family="'Futura-Medium'" font-size="21">0.3%</text>
</svg>
