<?xml version="1.0" encoding="utf-8"?>
<!-- Generator: Adobe Illustrator 15.0.0, SVG Export Plug-In . SVG Version: 6.00 Build 0)  -->
<!DOCTYPE svg PUBLIC "-//W3C//DTD SVG 1.1//EN" "http://www.w3.org/Graphics/SVG/1.1/DTD/svg11.dtd">
<svg version="1.1" id="Layer_1" xmlns="http://www.w3.org/2000/svg" xmlns:xlink="http://www.w3.org/1999/xlink" x="0px" y="0px"
	 width="82px" height="100px" viewBox="0 0 82 100" enable-background="new 0 0 82 100" xml:space="preserve">
<path fill="#00B0E3" d="M55.001,40.346l0.008-0.006L41,25.839l-14.008,14.5l0.006,0.007c-3.587,3.586-5.81,8.54-5.81,14.001
	c0,10.924,8.888,19.812,19.812,19.812c10.924,0,19.812-8.888,19.812-19.812C60.812,48.887,58.59,43.934,55.001,40.346z
	 M31.775,45.123L41,35.407l9.225,9.716l-0.004,0.005c2.363,2.362,3.825,5.624,3.825,9.221c0,0.016,0,0.032,0,0.049
	c-0.217-0.045-0.455-0.07-0.726-0.07c-1.099,0-1.685,0.425-2.204,0.8c-0.495,0.359-0.925,0.672-1.859,0.672
	c-0.992,0-1.439-0.318-1.956-0.685c-0.519-0.369-1.106-0.787-2.194-0.787c-1.099,0-1.687,0.425-2.204,0.8
	c-0.496,0.359-0.926,0.672-1.86,0.672c-0.993,0-1.439-0.318-1.956-0.685c-0.519-0.369-1.107-0.787-2.195-0.787
	c-1.099,0-1.687,0.425-2.204,0.8c-0.496,0.359-0.925,0.672-1.86,0.672c-0.993,0-1.439-0.318-1.956-0.685
	c-0.519-0.369-1.108-0.787-2.195-0.787c-0.271,0-0.509,0.025-0.724,0.07c0-0.017,0-0.032,0-0.049c0-3.597,1.463-6.858,3.825-9.221
	L31.775,45.123z M41,67.396c-5.854,0-10.82-3.876-12.466-9.196c0.048-0.002,0.093-0.007,0.145-0.007
	c0.779,0,1.157,0.269,1.635,0.608c0.569,0.405,1.213,0.863,2.515,0.863c1.248,0,1.875-0.454,2.427-0.855
	c0.475-0.344,0.85-0.616,1.636-0.616c0.779,0,1.157,0.269,1.635,0.608c0.57,0.405,1.214,0.863,2.516,0.863
	c1.249,0,1.874-0.454,2.428-0.855c0.475-0.344,0.85-0.616,1.636-0.616c0.778,0,1.157,0.269,1.636,0.608
	c0.569,0.405,1.214,0.863,2.515,0.863c1.249,0,1.875-0.454,2.429-0.855c0.474-0.344,0.85-0.616,1.635-0.616
	c0.052,0,0.098,0.005,0.146,0.007C51.819,63.52,46.854,67.396,41,67.396z"/>
</svg>
