<?xml version="1.0" encoding="utf-8"?>
<!-- Generator: Adobe Illustrator 15.0.0, SVG Export Plug-In . SVG Version: 6.00 Build 0)  -->
<!DOCTYPE svg PUBLIC "-//W3C//DTD SVG 1.1//EN" "http://www.w3.org/Graphics/SVG/1.1/DTD/svg11.dtd">
<svg version="1.1" id="Layer_1" xmlns="http://www.w3.org/2000/svg" xmlns:xlink="http://www.w3.org/1999/xlink" x="0px" y="0px"
	 width="800px" height="600px" viewBox="0 0 800 600" enable-background="new 0 0 800 600" xml:space="preserve">
<rect x="308" y="264" fill="#F07E26" width="82" height="80"/>
<rect x="144" y="264" fill="#D64E0D" width="82" height="80"/>
<rect x="390" y="264" fill="#F59A00" width="82" height="80"/>
<rect x="472" y="264" fill="#FBB92D" width="82" height="80"/>
<rect x="636" y="264" fill="#FFE07D" width="81" height="80"/>
<rect x="226" y="264" fill="#EC6408" width="82" height="80"/>
<rect x="554" y="264" fill="#FDCA50" width="82" height="80"/>
<rect x="152.521" y="296.376" fill="none" width="76.625" height="31.706"/>
<text transform="matrix(1 0 0 1 152.5205 315.832)" font-family="'Futura-Medium'" font-size="23.582">37.8%</text>
<rect x="232.25" y="296.376" fill="none" width="84.552" height="31.706"/>
<text transform="matrix(1 0 0 1 232.2505 315.832)" font-family="'Futura-Medium'" font-size="23.582">31.0%</text>
<rect x="322.352" y="296.376" fill="none" width="66.056" height="31.706"/>
<text transform="matrix(1 0 0 1 322.3516 315.832)" font-family="'Futura-Medium'" font-size="23.582">5.5%</text>
<rect x="399.9" y="296.376" fill="none" width="66.056" height="31.706"/>
<text transform="matrix(1 0 0 1 399.9014 315.832)" font-family="'Futura-Medium'" font-size="23.582">2.6%</text>
<rect x="477.187" y="296.376" fill="none" width="87.194" height="31.706"/>
<text transform="matrix(1 0 0 1 477.1865 315.832)" font-family="'Futura-Medium'" font-size="23.582">0.03%</text>
<rect x="566.627" y="296.376" fill="none" width="66.055" height="31.706"/>
<text transform="matrix(1 0 0 1 566.627 315.832)" font-family="'Futura-Medium'" font-size="23.582">0.0%</text>
<rect x="644.11" y="296.376" fill="none" width="66.055" height="31.706"/>
<text transform="matrix(1 0 0 1 644.1104 315.832)" font-family="'Futura-Medium'" font-size="23.582">0.0%</text>
</svg>
