<?xml version="1.0" encoding="utf-8"?>
<!-- Generator: Adobe Illustrator 15.0.0, SVG Export Plug-In . SVG Version: 6.00 Build 0)  -->
<!DOCTYPE svg PUBLIC "-//W3C//DTD SVG 1.1//EN" "http://www.w3.org/Graphics/SVG/1.1/DTD/svg11.dtd">
<svg version="1.1" id="Layer_1" xmlns="http://www.w3.org/2000/svg" xmlns:xlink="http://www.w3.org/1999/xlink" x="0px" y="0px"
	 width="76.536px" height="100px" viewBox="0 0 76.536 100" enable-background="new 0 0 76.536 100" xml:space="preserve">
<path fill="#F7931E" d="M70.27,74.812H59.377V62.801c0-2.777-2.252-5.028-5.027-5.028H43.174l0,0c0,2.313-1.875,4.19-4.189,4.19
	h-6.983l0,0c-2.313,0-4.189-1.877-4.189-4.19H12.45v9.776c0,1.08-0.876,1.955-1.956,1.955H6.305v-33.52h4.189
	c1.08,0,1.956,0.876,1.956,1.956v9.777h15.362l0,0c0-2.315,1.876-4.19,4.189-4.19V32.354H20.829c-1.852,0-3.353-1.5-3.353-3.352
	c0-1.851,1.501-3.352,3.353-3.352h29.33c1.852,0,3.354,1.501,3.354,3.352c0,1.852-1.502,3.352-3.354,3.352H38.987v11.173l0,0
	c2.312,0,4.189,1.876,4.189,4.19H54.35c8.752,0,14.059,3.724,15.92,11.173V74.812L70.27,74.812z"/>
</svg>
