<?xml version="1.0" encoding="utf-8"?>
<!-- Generator: Adobe Illustrator 15.0.0, SVG Export Plug-In . SVG Version: 6.00 Build 0)  -->
<!DOCTYPE svg PUBLIC "-//W3C//DTD SVG 1.1//EN" "http://www.w3.org/Graphics/SVG/1.1/DTD/svg11.dtd">
<svg version="1.1" id="Layer_1" xmlns="http://www.w3.org/2000/svg" xmlns:xlink="http://www.w3.org/1999/xlink" x="0px" y="0px"
	 width="800px" height="600px" viewBox="0 0 800 600" enable-background="new 0 0 800 600" xml:space="preserve">
<rect x="296" y="247" fill="#0090D4" width="73" height="71"/>
<rect x="150" y="247" fill="#133370" width="73" height="71"/>
<rect x="369" y="247" fill="#00ADE9" width="73" height="71"/>
<rect x="515" y="247" fill="#5DC5ED" width="73" height="71"/>
<rect x="588" y="247" fill="#B3DFF1" width="72" height="71"/>
<rect x="223" y="247" fill="#005B9D" width="73" height="71"/>
<rect x="442" y="247" fill="#6BB1E2" width="73" height="71"/>
<rect x="157.588" y="275.832" fill="none" width="68.235" height="28.234"/>
<text transform="matrix(1 0 0 1 157.5879 293.1567)" fill="#FCEE21" font-family="'Futura-Medium'" font-size="21">45.7%</text>
<g>
	<rect x="228.588" y="275.832" fill="none" width="75.294" height="28.234"/>
	<text transform="matrix(1 0 0 1 228.5879 293.1567)" fill="#FCEE21" font-family="'Futura-Medium'" font-size="21">23.1%</text>
</g>
<g>
	<rect x="308.824" y="275.832" fill="none" width="58.823" height="28.234"/>
	<text transform="matrix(1 0 0 1 308.8237 293.1567)" fill="#FCEE21" font-family="'Futura-Medium'" font-size="21">5.3%</text>
</g>
<g>
	<rect x="377.882" y="275.832" fill="none" width="58.823" height="28.234"/>
	<text transform="matrix(1 0 0 1 377.8823 293.1567)" fill="#FCEE21" font-family="'Futura-Medium'" font-size="21">2.8%</text>
</g>
<rect x="446.706" y="275.832" fill="none" width="77.647" height="28.234"/>
<text transform="matrix(1 0 0 1 446.7061 293.1567)" fill="#FCEE21" font-family="'Futura-Medium'" font-size="21">2.7%</text>
<rect x="526.354" y="275.832" fill="none" width="58.822" height="28.234"/>
<text transform="matrix(1 0 0 1 526.3535 293.1567)" fill="#FCEE21" font-family="'Futura-Medium'" font-size="21">1.1%</text>
<rect x="595.354" y="275.832" fill="none" width="58.822" height="28.234"/>
<text transform="matrix(1 0 0 1 595.3535 293.1567)" fill="#FDF14D" font-family="'Futura-Medium'" font-size="21">0.3%</text>
</svg>
