<?xml version="1.0" encoding="utf-8"?>
<!-- Generator: Adobe Illustrator 15.0.0, SVG Export Plug-In . SVG Version: 6.00 Build 0)  -->
<!DOCTYPE svg PUBLIC "-//W3C//DTD SVG 1.1//EN" "http://www.w3.org/Graphics/SVG/1.1/DTD/svg11.dtd">
<svg version="1.1" id="Layer_1" xmlns="http://www.w3.org/2000/svg" xmlns:xlink="http://www.w3.org/1999/xlink" x="0px" y="0px"
	 width="82px" height="100px" viewBox="0 0 82 100" enable-background="new 0 0 82 100" xml:space="preserve">
<path fill="#00B0E3" d="M52.003,47.344l0.007-0.005l-11.11-11.5L29.791,47.338l0.004,0.006c-2.844,2.844-4.607,6.772-4.607,11.104
	c0,8.663,7.049,15.712,15.712,15.712c8.663,0,15.712-7.049,15.712-15.712C56.612,54.117,54.85,50.189,52.003,47.344z M33.584,51.132
	l7.316-7.705l7.316,7.705l-0.004,0.004c1.875,1.874,3.034,4.46,3.034,7.313c0,0.013,0,0.024,0,0.039
	c-0.172-0.036-0.361-0.056-0.575-0.056c-0.872,0-1.337,0.337-1.748,0.634c-0.393,0.284-0.733,0.533-1.475,0.533
	c-0.786,0-1.141-0.252-1.552-0.543c-0.411-0.293-0.877-0.624-1.739-0.624c-0.872,0-1.339,0.337-1.749,0.634
	c-0.393,0.284-0.734,0.533-1.474,0.533c-0.788,0-1.141-0.252-1.551-0.543c-0.412-0.293-0.878-0.624-1.741-0.624
	c-0.872,0-1.338,0.337-1.748,0.634C35.5,59.351,35.161,59.6,34.419,59.6c-0.788,0-1.141-0.252-1.551-0.543
	c-0.412-0.293-0.879-0.624-1.741-0.624c-0.215,0-0.403,0.02-0.574,0.056c0-0.015,0-0.025,0-0.039c0-2.854,1.16-5.439,3.033-7.313
	L33.584,51.132z M40.9,68.796c-4.643,0-8.581-3.074-9.886-7.293c0.038-0.002,0.074-0.006,0.115-0.006
	c0.618,0,0.917,0.214,1.296,0.482c0.451,0.321,0.962,0.685,1.995,0.685c0.99,0,1.487-0.36,1.925-0.679
	c0.376-0.272,0.674-0.488,1.297-0.488c0.618,0,0.917,0.214,1.296,0.482c0.452,0.321,0.963,0.685,1.996,0.685
	c0.99,0,1.486-0.36,1.925-0.679c0.377-0.272,0.674-0.488,1.298-0.488c0.616,0,0.917,0.214,1.298,0.482
	c0.451,0.321,0.962,0.685,1.993,0.685c0.991,0,1.487-0.36,1.928-0.679c0.375-0.272,0.674-0.488,1.296-0.488
	c0.041,0,0.077,0.004,0.115,0.006C49.479,65.722,45.542,68.796,40.9,68.796z"/>
</svg>
